<svg xmlns="http://www.w3.org/2000/svg" viewBox="0 0 992.82 634.7"><defs><style>.a{fill:#43ab8c;}</style></defs><path class="a" d="M991,728.82V631h11.73V838.35H991v-97.8H884.88v97.8H873.15V631h11.73v97.8Z" transform="translate(-15.81 -206.14)"/><path class="a" d="M719.34,838.35H707.61v-149a68.56,68.56,0,0,1,19.79-40.32q19.8-19.8,47.8-19.79,28.15,0,47.95,19.79t19.79,47.8v141.5H831.21V696.85q0-23-16.42-39.44a55.9,55.9,0,0,0-95.45,39.44Z" transform="translate(-15.81 -206.14)"/><path class="a" d="M618.6,745.83q22.14,7.32,35,20.16a43.91,43.91,0,0,1-62.24,62,38.11,38.11,0,0,1-9.83-15.4l10.56-4.1A32.37,32.37,0,0,0,599.69,820a32.22,32.22,0,0,0,55-22.87,31.46,31.46,0,0,0-9.38-22.88q-8.81-8.65-24.34-15.83Q596,750.37,579,733.36a61.5,61.5,0,0,1,.07-86.8q18-18,43.33-18a58.62,58.62,0,0,1,43.41,18.19q14.5,14.35,17.3,33.43l-11,4a47.07,47.07,0,0,0-14.37-29.33,49.92,49.92,0,1,0-70.67,70.53A94.83,94.83,0,0,0,618.6,745.83Z" transform="translate(-15.81 -206.14)"/><path class="a" d="M480.48,745.83q22.14,7.32,35,20.16a43.91,43.91,0,0,1-62.25,62,38.08,38.08,0,0,1-9.82-15.4l10.56-4.1A32.2,32.2,0,0,0,461.56,820a32.23,32.23,0,0,0,55-22.87,31.43,31.43,0,0,0-9.39-22.88q-8.79-8.65-24.34-15.83-24.92-8.07-41.93-25.08a61.5,61.5,0,0,1,.07-86.8q18-18,43.33-18a58.58,58.58,0,0,1,43.4,18.19q14.52,14.35,17.3,33.43l-11,4a47.12,47.12,0,0,0-14.37-29.33A49.93,49.93,0,1,0,449,725.3,94.87,94.87,0,0,0,480.48,745.83Z" transform="translate(-15.81 -206.14)"/><path class="a" d="M327,838.35,251.74,631h12.31l33.14,91.2h71.7L402.62,631h12.46L339,838.35ZM301.44,733.8l31.53,87,31.67-87Z" transform="translate(-15.81 -206.14)"/><path class="a" d="M221.68,838.35V631h11.73V838.35Z" transform="translate(-15.81 -206.14)"/><path class="a" d="M173,838.35,35.17,645.24V838.35H23.44V631h18L176.08,819.58V631h11.73V838.35Z" transform="translate(-15.81 -206.14)"/><path class="a" d="M169.33,206.14v34.54H55.62V347.13H169.33v34.53H55.62v141H15.81V206.14Z" transform="translate(-15.81 -206.14)"/><path class="a" d="M412.59,522.64H372.78V487.45q-23.55,40.47-71.71,40.47-47.73,0-80.82-33.1t-33.11-78.19q0-45.53,33.11-78.52t80.82-33q48.18,0,71.71,40V321.61h39.81Zm-39.81-90.17V400.35a71.07,71.07,0,0,0-20-37.61q-22.22-22.42-51.69-22.43-29.68,0-51.46,22t-21.78,54.33q0,32.12,21.78,53.89t51.46,21.77q29.48,0,51.69-22.21A71.07,71.07,0,0,0,372.78,432.47Z" transform="translate(-15.81 -206.14)"/><path class="a" d="M498,264.32q8,7.81,8,17.48,0,10.13-8,17.93t-20.12,7.81q-12.54,0-20.46-7.81t-7.91-17.93q0-9.68,7.91-17.48t20.46-7.81Q490,256.51,498,264.32Zm-.55,57.29v201H457.89v-201Z" transform="translate(-15.81 -206.14)"/><path class="a" d="M596.9,422.35Q574.46,410,566.11,401.67q-16.29-16.28-16.28-37.39,0-20.89,15.84-36.95t39.59-16.05q23.75,0,38.27,14.73,15,15,15,32.78v6.15l-35.63,14.52q-3.3-24.85-7.59-29.25a13.55,13.55,0,0,0-10-4.4q-5.73,0-10.78,5.06t-5.06,13.41a19.09,19.09,0,0,0,5.72,14.08q3.74,4,17.37,12.54,24.86,13.64,36.29,24.85,18,18.48,18,43.55,0,25.72-18.69,44.65T601.3,522.86q-28.15,0-47-18.91t-18.81-47.29l39.59-9.9q0,25.51,8.14,33.65t18,8.14q9.9,0,18.14-8.14t8.25-21.11a28.33,28.33,0,0,0-8.8-21.12Q613.61,433.13,596.9,422.35Z" transform="translate(-15.81 -206.14)"/><path class="a" d="M925.05,522.64H885.24V487.45q-23.54,40.47-71.7,40.47-47.73,0-80.83-33.1t-33.1-78.19q0-45.53,33.1-78.52t80.83-33q48.16,0,71.7,40V321.61h39.81Zm-39.81-90.17V400.35a71,71,0,0,0-20-37.61Q843,340.32,813.54,340.31q-29.68,0-51.46,22T740.3,416.63q0,32.12,21.78,53.89t51.46,21.77q29.48,0,51.69-22.21A71,71,0,0,0,885.24,432.47Z" transform="translate(-15.81 -206.14)"/><path class="a" d="M1008.63,206.14v316.5H968.82V206.14Z" transform="translate(-15.81 -206.14)"/><rect class="a" x="10.5" y="362.06" width="971.38" height="13.88"/></svg>