<svg xmlns="http://www.w3.org/2000/svg" viewBox="0 0 610.28 920.93"><defs><style>.a{fill:#43ab8c;}.b{fill:#b2b09c;}</style></defs><polygon class="a" points="0 139.56 610.28 0 610.28 69.78 0 209.81 0 139.56"/><polygon class="a" points="0 339.21 371.83 252.33 371.83 323.5 0 402.98 0 339.21"/><polygon class="b" points="31.02 229.22 31.02 545.32 159.46 510.2 159.46 199.64 31.02 229.22"/><polygon class="b" points="475.55 139.56 610.28 104.91 610.28 399.29 475.55 434.41 475.55 139.56"/><path class="a" d="M735.33,910V864.39h5.47v96.66h-5.47v-45.6H685.84v45.6h-5.47V864.39h5.47V910Z" transform="translate(-206.86 -41.28)"/><path class="a" d="M608.66,961.05h-5.47V891.59a32,32,0,0,1,9.23-18.79,31.55,31.55,0,0,1,53.87,22.28v66h-5.47v-66a26.08,26.08,0,0,0-52.16,0Z" transform="translate(-206.86 -41.28)"/><path class="a" d="M561.7,917.91q10.32,3.42,16.3,9.4a20.47,20.47,0,0,1-29,28.88A17.71,17.71,0,0,1,544.4,949l4.92-1.92a15.06,15.06,0,0,0,3.56,5.4,15,15,0,0,0,25.63-10.66,14.66,14.66,0,0,0-4.37-10.67,40.29,40.29,0,0,0-11.35-7.38,48,48,0,0,1-19.55-11.69,28.59,28.59,0,1,1,40.47-40.4,27,27,0,0,1,8.07,15.59l-5.13,1.84a22,22,0,0,0-6.7-13.67,23.27,23.27,0,1,0-33,32.88A44.14,44.14,0,0,0,561.7,917.91Z" transform="translate(-206.86 -41.28)"/><path class="a" d="M497.3,917.91q10.33,3.42,16.31,9.4a20.47,20.47,0,0,1-29,28.88A17.61,17.61,0,0,1,480,949l4.92-1.92a15,15,0,0,0,3.55,5.4,15,15,0,0,0,25.64-10.66,14.67,14.67,0,0,0-4.38-10.67,40.08,40.08,0,0,0-11.34-7.38,47.89,47.89,0,0,1-19.55-11.69,27.47,27.47,0,0,1-8.34-20.16,28.63,28.63,0,0,1,28.57-28.71,27.3,27.3,0,0,1,20.23,8.47,26.92,26.92,0,0,1,8.07,15.59l-5.13,1.84a21.91,21.91,0,0,0-6.7-13.67,23.27,23.27,0,1,0-32.94,32.88A44.19,44.19,0,0,0,497.3,917.91Z" transform="translate(-206.86 -41.28)"/><path class="a" d="M425.73,961.05l-35.07-96.66h5.74l15.45,42.52h33.43L461,864.39h5.81l-35.47,96.66Zm-11.89-48.74,14.69,40.53,14.77-40.53Z" transform="translate(-206.86 -41.28)"/><path class="a" d="M376.65,961.05V864.39h5.47v96.66Z" transform="translate(-206.86 -41.28)"/><path class="a" d="M354,961.05,289.7,871v90h-5.47V864.39h8.4l62.76,87.91V864.39h5.47v96.66Z" transform="translate(-206.86 -41.28)"/><path class="a" d="M352.24,666.31v16.1h-53V732h53v16.1h-53v65.72H280.67V666.31Z" transform="translate(-206.86 -41.28)"/><path class="a" d="M465.65,813.86H447.09v-16.4q-11,18.87-33.42,18.86-22.26,0-37.69-15.43t-15.43-36.45q0-21.23,15.43-36.61t37.69-15.38q22.45,0,33.42,18.66v-11h18.56Zm-18.56-42v-15a33.1,33.1,0,0,0-9.33-17.53q-10.35-10.47-24.09-10.46t-24,10.25q-10.16,10.26-10.15,25.33t10.15,25.12a32.81,32.81,0,0,0,24,10.15q13.72,0,24.09-10.35A33.17,33.17,0,0,0,447.09,771.82Z" transform="translate(-206.86 -41.28)"/><path class="a" d="M505.49,693.43a11.17,11.17,0,0,1,3.74,8.15,11.36,11.36,0,0,1-3.74,8.36,14.11,14.11,0,0,1-18.92,0,11.42,11.42,0,0,1-3.69-8.36,11.22,11.22,0,0,1,3.69-8.15,14.11,14.11,0,0,1,18.92,0Zm-.26,26.71v93.72H486.78V720.14Z" transform="translate(-206.86 -41.28)"/><path class="a" d="M551.58,767.11q-10.46-5.75-14.36-9.64-7.58-7.59-7.58-17.43A23.84,23.84,0,0,1,537,722.81a24.86,24.86,0,0,1,18.46-7.49q11.07,0,17.84,6.87,7,7,7,15.28v2.87l-16.61,6.77q-1.54-11.58-3.54-13.64a6.34,6.34,0,0,0-4.66-2.05,7.07,7.07,0,0,0-5,2.36,8.47,8.47,0,0,0-2.36,6.26,8.92,8.92,0,0,0,2.67,6.56q1.74,1.85,8.1,5.84,11.58,6.36,16.92,11.59a28.13,28.13,0,0,1,8.41,20.3,28.65,28.65,0,0,1-8.72,20.82Q566.75,814,553.63,814t-21.89-8.82q-8.78-8.82-8.77-22l18.46-4.61q0,11.89,3.79,15.69a11.65,11.65,0,0,0,8.41,3.79,11.81,11.81,0,0,0,8.46-3.79,14.17,14.17,0,0,0-.26-19.69A80,80,0,0,0,551.58,767.11Z" transform="translate(-206.86 -41.28)"/><path class="a" d="M704.57,813.86H686v-16.4q-11,18.87-33.43,18.86-22.25,0-37.68-15.43t-15.43-36.45q0-21.23,15.43-36.61t37.68-15.38q22.45,0,33.43,18.66v-11h18.56Zm-18.56-42v-15a33.1,33.1,0,0,0-9.33-17.53q-10.36-10.47-24.1-10.46t-24,10.25q-10.15,10.26-10.15,25.33t10.15,25.12a32.77,32.77,0,0,0,24,10.15q13.74,0,24.1-10.35A33.17,33.17,0,0,0,686,771.82Z" transform="translate(-206.86 -41.28)"/><path class="a" d="M743.53,666.31V813.86H725V666.31Z" transform="translate(-206.86 -41.28)"/><rect class="a" x="78.71" y="793.82" width="452.86" height="6.47"/></svg>